<svg id="Layer_1" height="512" viewBox="0 0 128 128" width="512" xmlns="http://www.w3.org/2000/svg" xmlns:xlink="http://www.w3.org/1999/xlink" data-name="Layer 1"><linearGradient id="linear-gradient" gradientUnits="userSpaceOnUse" x1="4.756" x2="123.244" y1="64" y2="64"><stop offset="0" stop-color="#d75a4a"/><stop offset="1" stop-color="#f2d15a"/></linearGradient><path d="m39.8 95.972 1.529-3.109a1.75 1.75 0 0 1 3.141 1.545l-1.529 3.109a1.75 1.75 0 1 1 -3.141-1.545zm-26.8-48.712-4.376 1.06 1.426 5.888 10.474-2.535-3.174-13.11a1.75 1.75 0 0 1 1.289-2.112l11.808-2.858-.632-2.593a1.75 1.75 0 0 1 1.285-2.111l65.028-15.746-.934-3.857a1.75 1.75 0 0 1 1.289-2.113l9.8-2.374a1.75 1.75 0 0 1 2.113 1.289l1.278 5.277a16.6 16.6 0 0 1 7.135 29.458l1.278 5.275a1.75 1.75 0 0 1 -1.287 2.112l-9.8 2.374a1.75 1.75 0 0 1 -2.113-1.289l-.936-3.862-15.8 3.83a1.75 1.75 0 1 1 -.824-3.4l15.8-3.83-6.175-25.489-63.323 15.335.625 2.581v.008.008l5.546 22.9 16.737-4.056a7.73 7.73 0 0 1 13.163-3.184l9.747-2.363a1.75 1.75 0 1 1 .824 3.4l-8.8 2.135a7.669 7.669 0 0 1 -1.07 6.44l27.858 56.66a4.742 4.742 0 0 1 -2.171 6.354 4.643 4.643 0 0 1 -2.088.488 4.781 4.781 0 0 1 -4.262-2.659l-20.982-42.666v40.575a4.75 4.75 0 1 1 -9.5 0v-40.575l-20.979 42.667a4.779 4.779 0 0 1 -4.261 2.658 4.658 4.658 0 0 1 -2.1-.495 4.742 4.742 0 0 1 -2.157-6.35l6.876-13.986a1.75 1.75 0 1 1 3.141 1.544l-6.876 13.989a1.244 1.244 0 0 0 .569 1.666 1.251 1.251 0 0 0 1.669-.57l24.118-49.054v-5.654l-11.674 23.743a1.75 1.75 0 1 1 -3.141-1.544l13.173-26.79a7.708 7.708 0 0 1 -1.2-2.8l-17.49 4.238a1.748 1.748 0 0 1 -2.109-1.287l-.627-2.59-11.81 2.861a1.747 1.747 0 0 1 -2.113-1.289l-.922-3.808-12.175 2.947a1.748 1.748 0 0 1 -2.113-1.289l-2.255-9.29a1.75 1.75 0 0 1 1.289-2.113l6.077-1.471a1.75 1.75 0 1 1 .834 3.402zm55.756 22.734 24.12 49.055a1.273 1.273 0 0 0 1.657.577 1.248 1.248 0 0 0 .644-.723 1.227 1.227 0 0 0 -.061-.947l-26.36-53.616zm-3.5-6.979a7.139 7.139 0 0 1 -2.5 0v55.485a1.25 1.25 0 1 0 2.5 0zm-5.5-7.64a4.235 4.235 0 0 0 1.238 2.994l.006.011a4.243 4.243 0 0 0 6.006 0l.009-.011a4.225 4.225 0 0 0 .544-5.309 4.245 4.245 0 0 0 -7.8 2.318zm50.849-40.161 5.277 21.786a13.093 13.093 0 0 0 -5.277-21.787zm-11.6-5.051.922 3.8c0 .018.013.033.018.051s0 .036.007.053l7.92 32.7 6.4-1.549-8.872-36.605zm-77.847 29.276 3.165 13.069c0 .014.011.026.014.04s0 .028.006.042l.912 3.767 10.108-2.446-4.1-16.918zm55.877-15.5-13.441 3.261a1.75 1.75 0 1 0 .824 3.4l13.442-3.257a1.75 1.75 0 1 0 -.824-3.4zm13.015-1.349a1.746 1.746 0 0 0 -2.113-1.29l-4 .968a1.75 1.75 0 1 0 .824 3.4l4-.968a1.75 1.75 0 0 0 1.289-2.11z" fill="url(#linear-gradient)"/></svg>